<svg width="127" height="31" viewBox="0 0 127 31" fill="none" xmlns="http://www.w3.org/2000/svg">
<g clip-path="url(#clip0_2_86)">
<path d="M70.5 8.02998C71.2 7.98998 71.94 7.91998 72.62 7.83998L72.79 9.21998C71.34 9.42998 69.56 9.51998 68.24 9.51998H66.87L66.79 8.10998H68.4C68.57 8.10998 68.75 8.10998 68.94 8.09998V7.02998C67.85 6.78998 67.06 5.96998 67.06 4.50998V4.37998C67.06 2.58998 68.22 1.76998 69.67 1.76998C71.12 1.76998 72.28 2.58998 72.28 4.37998V4.50998C72.28 5.92998 71.54 6.73998 70.5 7.00998V8.02998ZM68.62 4.48998C68.62 5.33998 69.11 5.69998 69.67 5.69998C70.23 5.69998 70.72 5.33998 70.72 4.48998V4.37998C70.72 3.52998 70.23 3.16998 69.67 3.16998C69.11 3.16998 68.62 3.52998 68.62 4.37998V4.48998ZM75.92 4.76998V6.18998H74.76V10.81H73.19V1.41998H74.76V4.76998H75.92Z" fill="#7D7D7D"/>
<path d="M76.38 6.42998V4.97998C76.38 2.64998 77.57 1.76998 79.02 1.76998C80.47 1.76998 81.65 2.64998 81.65 4.97998V6.42998C81.65 8.75998 80.46 9.63998 79.02 9.63998C77.58 9.63998 76.38 8.75998 76.38 6.42998ZM80.09 6.42998V4.97998C80.09 3.57998 79.58 3.17998 79.02 3.17998C78.46 3.17998 77.94 3.57998 77.94 4.97998V6.42998C77.94 7.82998 78.46 8.22998 79.02 8.22998C79.58 8.22998 80.09 7.82998 80.09 6.42998ZM82.81 10.81V1.41998H84.37V10.8H82.81V10.81Z" fill="#7D7D7D"/>
<path d="M89.09 4.25998V1.90998H90.63V9.34998H85.66V1.90998H87.2V4.25998H89.09ZM87.2 7.94998H89.09V5.64998H87.2V7.94998ZM91.99 1.41998H93.55V10.8H91.99V1.41998Z" fill="#7D7D7D"/>
<path d="M98.73 4.59998C98.52 5.71998 97.73 6.27998 96.69 6.27998C95.47 6.27998 94.59 5.50998 94.59 3.95998V3.85998C94.59 2.28998 95.47 1.51998 96.69 1.51998C97.73 1.51998 98.53 2.07998 98.74 3.22998H99.46V1.50998H100.88V6.46998H99.46V4.59998H98.73ZM96.01 3.93998C96.01 4.58998 96.32 4.92998 96.69 4.92998C97.06 4.92998 97.37 4.58998 97.37 3.93998V3.85998C97.37 3.20998 97.06 2.86998 96.69 2.86998C96.32 2.86998 96.01 3.20998 96.01 3.85998V3.93998ZM96.28 10.81V6.90998H102.93V10.81H96.28ZM97.84 8.27998V9.41998H101.36V8.27998H97.84ZM101.46 1.41998H102.93V6.46998H101.46V1.41998Z" fill="#7D7D7D"/>
<path d="M75.22 26.63H80.78V28.97H66.13V26.63H69.03V21.27H71.44V26.63H72.81V21.27H75.22V26.63ZM76.01 24.29C76.37 21.98 76.64 19.34 76.65 17.86H67.5V15.52H79.24V16.94C79.24 19.28 78.98 22.09 78.55 24.68L76.01 24.3V24.29Z" fill="#E83844"/>
<path d="M83.95 23.58H81.54L81.44 21.57H84.21C86.09 21.57 88.93 21.4 91.4 21.12L91.65 23.1C90.31 23.28 88.83 23.4 87.38 23.48C87.35 24.16 87.3 24.93 87.21 25.71L84.77 25.54C84.82 24.86 84.87 24.2 84.9 23.56C84.57 23.58 84.26 23.58 83.94 23.58H83.95ZM81.95 17.81V17.66C81.95 15.65 83.81 14.64 86.34 14.64C88.87 14.64 90.71 15.65 90.71 17.66V17.81C90.71 19.79 88.85 20.8 86.34 20.8C83.83 20.8 81.95 19.79 81.95 17.81ZM86.5 27.64H95.36V29.97H83.93V26.11H86.5V27.64ZM84.36 17.78C84.36 18.47 85.2 18.77 86.34 18.77C87.48 18.77 88.3 18.47 88.3 17.78V17.68C88.3 16.99 87.46 16.67 86.34 16.67C85.22 16.67 84.36 16.98 84.36 17.68V17.78ZM88.76 23.95H92.31V14.48H94.88V26.67H92.31V25.81H88.76V23.95Z" fill="#E83844"/>
<path d="M104.89 21.78C104.15 23.08 102.76 23.69 101.18 23.69C98.77 23.69 96.86 22.3 96.86 19.32V19.12C96.86 16.08 98.77 14.72 101.18 14.72C102.63 14.72 103.9 15.23 104.68 16.3H107.47V14.47H110.04V25.79H107.47V21.78H104.9H104.89ZM101.82 27.64H110.53V29.97H99.25V24.82H101.82V27.64ZM99.43 19.29C99.43 20.81 100.25 21.45 101.18 21.45C102.11 21.45 102.9 20.81 102.9 19.29V19.12C102.9 17.6 102.07 16.96 101.18 16.96C100.29 16.96 99.43 17.6 99.43 19.12V19.29ZM107.46 18.32H105.41C105.44 18.57 105.46 18.85 105.46 19.13V19.33C105.46 19.48 105.46 19.63 105.44 19.78H107.45V18.33L107.46 18.32Z" fill="#E83844"/>
<path d="M126.22 23.74V26.07H120.18V30.13H117.61V26.07H111.57V23.74H126.22ZM118.5 19.52C117.39 20.62 115.71 21.58 113.32 22.41L112.3 20.17C116.42 18.65 117.69 17.04 117.69 15.42V14.56H120.26V15.42C120.26 16.11 120.14 16.79 119.9 17.43L125.49 20.22L124.29 22.41L118.5 19.52Z" fill="#E83844"/>
<path d="M48.16 5.27998V30.07H42.22V0.23998C42.22 0.0199801 42.57 -0.0800199 42.75 0.0899801L48.16 5.27998Z" fill="#0055A7"/>
<path d="M0 9.28V0H5.94V14.31C5.94 14.53 5.59 14.63 5.41 14.46L0 9.28Z" fill="#E83844"/>
<path d="M14.38 24.79V0H8.44V29.82C8.44 30.04 8.79 30.14 8.97 29.97L14.38 24.78V24.79Z" fill="#E83844"/>
<path d="M22.83 0H16.89V30.06H22.83V0Z" fill="#E83844"/>
<path d="M25.86 0.0899801C25.68 -0.0800199 25.33 0.0199801 25.33 0.23998V14.31C25.33 14.53 25.68 14.63 25.86 14.46L31.27 9.26998V5.27998L25.86 0.0899801Z" fill="#E83844"/>
<path d="M25.86 15.61C25.68 15.44 25.33 15.54 25.33 15.76V29.83C25.33 30.05 25.68 30.15 25.86 29.98L31.27 24.79V20.8L25.86 15.61Z" fill="#E83844"/>
<path d="M39.72 5.27998V30.07H33.78V0.23998C33.78 0.0199801 34.13 -0.0800199 34.31 0.0899801L39.72 5.27998Z" fill="#0055A7"/>
<path d="M56.6 5.27998V30.07H50.66V0.23998C50.66 0.0199801 51.01 -0.0800199 51.19 0.0899801L56.6 5.27998Z" fill="#0055A7"/>
</g>
<defs>
<clipPath id="clip0_2_86">
<rect width="126.22" height="30.13" fill="white"/>
</clipPath>
</defs>
</svg>
