<svg width="191" height="54" viewBox="0 0 191 54" fill="none" xmlns="http://www.w3.org/2000/svg">
<g clip-path="url(#clip0_11067_176510)">
<path d="M131.279 39.5959C130.767 39.8582 129.629 40.1319 128.196 40.1319C124.407 40.1319 122.108 37.7598 122.108 34.1219C122.108 30.1875 124.828 27.8154 128.48 27.8154C129.914 27.8154 130.938 28.1119 131.381 28.3514L130.904 30.0849C130.335 29.834 129.561 29.6287 128.571 29.6287C126.147 29.6287 124.395 31.1568 124.395 34.0307C124.395 36.6536 125.931 38.3414 128.548 38.3414C129.436 38.3414 130.346 38.159 130.915 37.8967L131.279 39.5959Z" fill="#666565"/>
<path d="M135.648 36.5623L134.624 39.9493H132.383L136.206 27.9978H138.982L142.851 39.9493H140.518L139.437 36.5623H135.648ZM139.062 34.9087L138.129 31.9664C137.901 31.2366 137.708 30.4269 137.526 29.7312H137.492C137.31 30.4269 137.139 31.2594 136.923 31.9664L136.001 34.9087H139.062Z" fill="#666565"/>
<path d="M154.525 35.0684C154.457 33.5289 154.366 31.67 154.389 30.0506H154.332C153.945 31.4989 153.444 33.1183 152.921 34.6237L151.191 39.8011H149.507L147.914 34.6921C147.459 33.1639 147.027 31.5331 146.708 30.0506H146.674C146.617 31.613 146.549 33.5061 146.458 35.1368L146.196 39.938H144.159L144.956 27.9865H147.823L149.382 32.7876C149.803 34.1903 150.179 35.6044 150.474 36.9387H150.531C150.85 35.65 151.259 34.1675 151.715 32.7762L153.364 27.9865H156.198L156.892 39.938H154.775L154.525 35.0684Z" fill="#666565"/>
<path d="M159.099 28.1575C159.873 28.0207 160.954 27.9066 162.422 27.9066C164.015 27.9066 165.187 28.2487 165.937 28.8874C166.643 29.469 167.109 30.4155 167.109 31.5331C167.109 32.6621 166.757 33.6087 166.085 34.2473C165.221 35.114 163.855 35.5246 162.319 35.5246C161.91 35.5246 161.545 35.5018 161.261 35.4562V39.9608H159.099V28.1575ZM161.261 33.7227C161.523 33.7911 161.875 33.814 162.319 33.814C163.946 33.814 164.936 33.0157 164.936 31.613C164.936 30.2787 164.015 29.5716 162.513 29.5716C161.91 29.5716 161.489 29.6286 161.261 29.6743V33.7227Z" fill="#666565"/>
<path d="M171.149 27.9979V34.9658C171.149 37.3036 172.127 38.387 173.595 38.387C175.165 38.387 176.11 37.3036 176.11 34.9658V27.9979H178.283V34.8175C178.283 38.5011 176.394 40.1319 173.527 40.1319C170.762 40.1319 168.987 38.5923 168.987 34.8289V27.9865H171.149V27.9979Z" fill="#666565"/>
<path d="M180.729 37.5659C181.435 37.9765 182.493 38.33 183.608 38.33C185.008 38.33 185.781 37.6686 185.781 36.6992C185.781 35.7983 185.178 35.2623 183.654 34.7149C181.685 34.0079 180.434 32.9587 180.434 31.2367C180.434 29.2865 182.061 27.7926 184.643 27.7926C185.929 27.7926 186.885 28.0777 187.511 28.397L186.976 30.1533C186.555 29.9252 185.724 29.5831 184.609 29.5831C183.233 29.5831 182.63 30.3243 182.63 31.02C182.63 31.9437 183.324 32.3657 184.917 32.9929C186.987 33.7684 188 34.8175 188 36.5396C188 38.4555 186.555 40.1205 183.472 40.1205C182.22 40.1205 180.911 39.7669 180.251 39.3792L180.729 37.5659Z" fill="#666565"/>
<path d="M9.1898 6.53528H4.97983V3H3V12.0435H4.97983V8.30292H9.1898V12.0435H11.1696V3H9.1898V6.53528Z" fill="#002D74"/>
<path d="M54.1909 4.76764H57.8775V7.39059H53.6789V5.28083C53.6903 5.17819 53.6675 4.98432 53.7585 4.87028C53.8609 4.75624 54.0089 4.76764 54.1909 4.76764ZM52.1542 3.51319C51.7446 3.93514 51.7218 4.56237 51.7104 4.9273V12.0435H53.6789V9.15823H57.8775V12.0435H59.8687V3H53.7017C53.1214 3 52.5752 3.09123 52.1542 3.51319Z" fill="#002D74"/>
<path d="M38.1589 3H31.9805V12.0435H33.9603V4.76764H37.6696C37.8517 4.76764 38.011 4.75624 38.0906 4.88168C38.1817 4.99572 38.1589 5.17819 38.1703 5.29223V12.0549H40.1501V4.9273C40.1387 4.56237 40.116 3.94654 39.7063 3.51319C39.2967 3.09123 38.7506 3 38.1589 3Z" fill="#002D74"/>
<path d="M28.2598 9.76265C28.2484 9.86529 28.2712 10.0478 28.1801 10.1618C28.0891 10.2758 27.9298 10.2758 27.7478 10.2758H24.0384V3H22.0586V12.0435H28.237C28.8287 12.0435 29.3749 11.9522 29.7845 11.5189C30.2055 11.0969 30.2168 10.4811 30.2282 10.1162V3H28.2598V9.76265Z" fill="#002D74"/>
<path d="M48.1036 9.76265C48.1036 9.86529 48.115 10.0478 48.024 10.1618C47.9329 10.2758 47.785 10.2758 47.603 10.2758H43.8823V4.76764H47.603C47.785 4.76764 47.9329 4.75624 48.024 4.88168C48.115 4.99572 48.0922 5.17819 48.1036 5.29223V9.76265ZM50.0834 4.9273C50.0721 4.56237 50.0607 3.94654 49.6397 3.51319C49.2187 3.09123 48.6725 3 48.0922 3H41.9138V12.0435H48.0922C48.6839 12.0435 49.2301 11.9522 49.6397 11.5189C50.0493 11.0969 50.0607 10.4811 50.0834 10.1162V4.9273Z" fill="#002D74"/>
<path d="M16.6199 6.95723L14.2191 3H11.8638L15.5617 8.70207V12.0435H17.6781V8.70207L21.3647 3H19.0094L16.6199 6.95723Z" fill="#002D74"/>
<path d="M63.9765 3H61.8601V12.0435H63.9765V3Z" fill="#002D74"/>
<path d="M28.533 41.4434V28.9786H31.1158L34.3245 34.3272C35.1551 35.7185 35.872 37.1554 36.4523 38.5125H36.4864C36.3385 36.8475 36.2816 35.2395 36.2816 33.335V28.99H38.3866V41.4548H36.0426L32.7998 35.9808C32.0033 34.6123 31.1727 33.0727 30.5697 31.67L30.5128 31.6928C30.6038 33.3008 30.6266 34.943 30.6266 37.0071V41.4662H28.533V41.4434Z" fill="#F5A200"/>
<path d="M70.4733 40.8161C69.6769 41.1126 68.1294 41.5232 66.4682 41.5232C64.3632 41.5232 62.7816 40.9872 61.5982 39.8582C60.4946 38.809 59.846 37.1554 59.8687 35.2737C59.8687 31.3393 62.6792 28.7961 66.7868 28.7961C68.3228 28.7961 69.5176 29.1155 70.0865 29.3892L69.5858 31.2252C68.9031 30.9287 68.0725 30.6892 66.764 30.6892C64.1015 30.6892 62.2468 32.263 62.2468 35.1711C62.2468 37.9993 63.9763 39.6871 66.5706 39.6871C67.3784 39.6871 67.9929 39.573 68.2887 39.4248V36.3001H66.0927V34.5096H70.4847V40.8161H70.4733Z" fill="#F5A200"/>
<path d="M96.7118 41.4434L92.6838 28.9787H95.1643L96.8597 34.6351C97.3376 36.2089 97.7472 37.6686 98.0772 39.1854H98.1113C98.4413 37.7029 98.885 36.1861 99.3857 34.6694L101.195 28.9673H103.607L99.306 41.432H96.7118V41.4434Z" fill="#F5A200"/>
<path d="M33.9603 51C25.1421 51 17.9624 43.804 17.9624 34.9658C17.9624 26.1276 25.1421 18.9316 33.9603 18.9316C39.2854 18.9316 44.2349 21.5774 47.216 26.0022C48.0353 27.211 47.7167 28.8532 46.5106 29.6743C46.0782 29.9708 45.5662 30.1305 45.0314 30.1305C44.1553 30.1305 43.336 29.6971 42.8468 28.9673C40.8442 26.0022 37.5217 24.2231 33.9603 24.2231C28.055 24.2231 23.2419 29.0471 23.2419 34.9658C23.2419 40.8846 28.055 45.7085 33.9603 45.7085C37.351 45.7085 40.4687 44.1576 42.5168 41.4434L52.3932 26.2417C55.3402 21.6002 60.3808 18.829 65.8765 18.829C71.4746 18.829 76.7314 21.8169 79.6101 26.6294C80.3611 27.8839 79.9515 29.5032 78.6998 30.2559C78.2902 30.4954 77.8237 30.6323 77.3458 30.6323C76.4128 30.6323 75.5594 30.1533 75.0815 29.3436C73.1245 26.0706 69.6882 24.1091 65.8765 24.1091C62.1899 24.1091 58.8106 25.968 56.8307 29.0927L46.8975 44.3856L46.8064 44.5225C43.7912 48.571 38.9895 51 33.9603 51Z" fill="#F5A200"/>
<path d="M98.0884 50.886C92.2172 50.886 86.8353 47.67 84.0248 42.4926C83.6835 41.8767 83.6152 41.1583 83.8087 40.4854C84.0135 39.8126 84.4572 39.2538 85.083 38.9117C85.4699 38.7064 85.9023 38.5923 86.3346 38.5923C87.3018 38.5923 88.1893 39.1169 88.6558 39.9722C90.5332 43.4391 94.1515 45.5945 98.0771 45.5945C103.982 45.5945 108.795 40.7705 108.795 34.8518C108.795 28.933 103.982 24.1091 98.0771 24.1091C94.3905 24.1091 91.0111 25.968 89.0199 29.0927L78.3926 44.8076C78.3471 44.876 78.3016 44.933 78.256 45.0015C75.2067 48.742 70.6895 50.886 65.8764 50.886C60.0052 50.886 54.6119 47.67 51.8128 42.4926C51.4715 41.8767 51.4032 41.1583 51.5967 40.4854C51.8015 39.8126 52.2452 39.2538 52.871 38.9117C53.2579 38.7064 53.6903 38.5923 54.1226 38.5923C55.0898 38.5923 55.9773 39.1169 56.4438 39.9722C58.3212 43.4391 61.9395 45.5945 65.8651 45.5945C69.0396 45.5945 72.0435 44.1918 74.0802 41.7513L84.5824 26.2303C87.5407 21.5888 92.5813 18.829 98.0657 18.829C106.884 18.829 114.064 26.025 114.064 34.8632C114.064 43.7014 106.907 50.886 98.0884 50.886Z" fill="#F5A200"/>
</g>
<defs>
<clipPath id="clip0_11067_176510">
<rect width="185" height="48" fill="white" transform="translate(3 3)"/>
</clipPath>
</defs>
</svg>
